<?xml version="1.0" encoding="utf-8"?>
<!-- Generator: Adobe Illustrator 29.1.0, SVG Export Plug-In . SVG Version: 9.03 Build 55587)  -->
<svg version="1.0" id="Layer_1" xmlns="http://www.w3.org/2000/svg" xmlns:xlink="http://www.w3.org/1999/xlink" x="0px" y="0px"
	 viewBox="0 0 200 200" style="enable-background:new 0 0 200 200;" xml:space="preserve">
<style type="text/css">
	.st0{fill:#006CED;}
	.st1{fill:#FFFFFF;}
</style>
<g>
	<circle class="st0" cx="100" cy="100" r="100"/>
	<g>
		<g>
			<path class="st1" d="M145.5,133.9c-3.3,5.9-7.8,10.6-13.4,13.9c-5.6,3.4-12.7,5.1-21.1,5.1c-8.3,0-15.5-2-21.5-6.1
				c-5.8-3.9-10.6-9.4-14.2-16.2c7.5-2.1,15.2-4.5,23-7.3c8.1-2.9,15.7-6.6,22.5-11.1c6.9-4.5,12.6-10,16.9-16.6s6.5-14.6,6.5-23.9
				c0-11.2-3.9-20.3-11.6-27c-7.6-6.7-17.7-10.1-30-10.1c-10.7,0-20.1,3-27.9,8.9s-13.8,13.9-18,23.8s-6.3,20.9-6.3,32.9
				s2.3,23.1,6.7,32.9c4.5,9.9,10.9,17.8,19.3,23.7c8.3,5.9,18.4,8.9,29.9,8.9c6.9,0,13.3-1.5,19-4.4c5.7-2.9,10.6-6.6,14.6-11.1
				s7.2-9.2,9.3-14.2l0.2-0.6l-3.6-2L145.5,133.9z M102.3,39.1c5.5,0,10.1,1.5,13.6,4.6s6.2,7,7.9,11.7c1.7,4.8,2.6,9.8,2.6,14.9
				c0,9.3-1.6,17.2-4.7,23.4c-3.1,6.3-7.3,11.5-12.4,15.6c-5.2,4.1-11,7.5-17.2,10.1c-6.1,2.5-12.5,4.7-18.8,6.4
				c-3.8-9.1-5.8-19.8-5.8-31.6c0-16.9,3.2-30.5,9.5-40.4C83.1,44.1,91.6,39.1,102.3,39.1z"/>
			<path class="st1" d="M82,109.2c-0.9-4.6-1.3-9.6-1.3-14.9c0-14.4,2.5-25.6,7.4-33.3c4.8-7.6,10.2-8.6,14.2-8.6
				c2.2,0,3.9,0.4,4.9,1.3c1.8,1.6,3.2,3.6,4.1,6.2c1.2,3.3,1.8,6.8,1.8,10.4c0,7.2-1.1,13.1-3.3,17.5c-2.2,4.5-5.2,8.3-8.8,11.1
				c-4.2,3.3-8.9,6.1-14,8.2C85.3,107.9,83.7,108.6,82,109.2z"/>
		</g>
	</g>
</g>
</svg>
