<?xml version="1.0" encoding="utf-8"?>
<!-- Generator: Adobe Illustrator 29.1.0, SVG Export Plug-In . SVG Version: 9.03 Build 55587)  -->
<svg version="1.0" id="Layer_1" xmlns="http://www.w3.org/2000/svg" xmlns:xlink="http://www.w3.org/1999/xlink" x="0px" y="0px"
	 viewBox="0 0 145.9 45.3" style="enable-background:new 0 0 145.9 45.3;" xml:space="preserve">
<style type="text/css">
	.st0{fill:#006CED;}
</style>
<g>
	<g>
		<g>
			<path class="st0" d="M39.6,39.4c-0.6,0.5-1.2,0.7-1.8,0.7c-0.4,0-0.9-0.1-1.2-0.4c-0.4-0.2-0.7-0.7-0.9-1.3s-0.4-1.5-0.4-2.6V11
				h4.9V9.8h-4.9V3.6l-4.1,1.6v4.6h-4.5V11h4.5v24.2c0,2.2,0.5,3.8,1.4,4.8c1,1,2.3,1.5,3.9,1.5c1.7,0,3-0.4,4-1.3l0.1-0.1l-0.8-0.9
				L39.6,39.4z"/>
			<path class="st0" d="M83.7,10.9c-1.3-0.7-2.7-1.1-4.3-1.1c-1.8,0-3.3,0.4-4.4,1.2c-0.9,0.7-1.6,1.5-2.2,2.6V9.7l-4.1,1.6v29.6
				h4.1V18.5c0-1.3,0.2-2.5,0.7-3.6s1.1-2.1,1.9-2.8s1.7-1,2.7-1c1.5,0,2.8,0.8,3.9,2.3c0.7,1.1,1.3,2.4,1.9,4l0.1,0.3l2.8-3.7
				l-0.1-0.1C86,12.6,85,11.6,83.7,10.9z"/>
			<path class="st0" d="M107.1,11.7c-1.6-1.3-3.5-1.9-5.7-1.9c-1.8,0-3.5,0.4-4.9,1.3c-1.2,0.7-2.2,1.7-2.9,2.9V9.8l-4.1,1.6V41h4.1
				V18.6c0-1.9,0.7-3.6,2.2-5.2c1.4-1.5,3.1-2.3,4.8-2.3c2.1,0,3.8,1.1,5.2,3.3c1.4,2.2,2,5.2,2,9V41h4.3V24.7
				c0-2.9-0.4-5.5-1.3-7.7C109.9,14.8,108.7,13,107.1,11.7z"/>
			<path class="st0" d="M141.7,39.7l-0.1,0.1c-0.4,0.3-0.8,0.5-1.2,0.5c-0.7,0-1.1-0.3-1.4-0.9c-0.3-0.6-0.4-1.8-0.4-3.4V24.6
				c0-3.5-0.5-6.3-1.5-8.5s-2.3-3.8-4-4.8s-3.5-1.5-5.6-1.5c-2.3,0-4.5,0.5-6.5,1.5s-3.6,2.2-4.8,3.5l-0.1,0.1l2.8,3.7l0.1-0.3
				c0.7-1.9,1.5-3.4,2.4-4.4s1.8-1.8,2.8-2.2s2.1-0.6,3.1-0.6c3.9,0,6.2,3.4,6.8,10.1c-1.2,0-2.6,0.1-4.1,0.3
				c-1.6,0.2-3.3,0.5-5,0.9c-1.7,0.5-3.3,1.1-4.7,1.9c-1.4,0.8-2.6,1.9-3.6,3.2c-0.9,1.3-1.4,3-1.4,4.9c0,1.6,0.3,3,0.9,4.2
				s1.3,2.1,2.2,2.8c0.9,0.7,1.9,1.3,3,1.6s2.1,0.5,3.1,0.5c1.6,0,3.1-0.4,4.4-1.1c1.3-0.7,2.4-1.6,3.4-2.6c0.8-0.8,1.5-1.7,2-2.4
				c0,1.4,0.2,2.6,0.7,3.5s1.1,1.6,1.8,2.1c0.8,0.4,1.6,0.7,2.6,0.7c1.2,0,2.2-0.3,2.8-1l0.1-0.1L141.7,39.7z M134.5,24.6v8.7
				c-0.4,0.6-0.9,1.4-1.7,2.2c-0.7,0.9-1.6,1.6-2.7,2.3c-1.1,0.7-2.3,1-3.7,1c-1.1,0-2.2-0.2-3.2-0.7s-1.8-1.2-2.4-2.1
				c-0.6-0.9-0.9-2.1-0.9-3.5c0-3.3,1.2-5.8,3.6-7.4c2.5-1.8,6.2-2.7,10.8-2.8C134.4,23.1,134.5,23.8,134.5,24.6z"/>
			<g>
				<g>
					<path class="st0" d="M65.2,34c-0.8,1.4-1.9,2.6-3.3,3.4c-1.4,0.8-3.1,1.2-5.2,1.2c-2,0-3.8-0.5-5.3-1.5c-1.4-1-2.6-2.3-3.5-4
						c1.8-0.5,3.7-1.1,5.6-1.8c2-0.7,3.8-1.6,5.5-2.7s3.1-2.5,4.1-4.1c1.1-1.6,1.6-3.6,1.6-5.9c0-2.7-1-5-2.8-6.6
						c-1.9-1.6-4.3-2.5-7.4-2.5c-2.6,0-4.9,0.7-6.8,2.2c-1.9,1.4-3.4,3.4-4.4,5.8s-1.5,5.1-1.5,8.1c0,2.9,0.6,5.7,1.6,8.1
						c1.1,2.4,2.7,4.4,4.7,5.8c2,1.4,4.5,2.2,7.3,2.2c1.7,0,3.3-0.4,4.6-1.1c1.4-0.7,2.6-1.6,3.6-2.7c1-1.1,1.8-2.3,2.3-3.5l0.1-0.1
						l-0.9-0.5L65.2,34z M54.6,10.8c1.4,0,2.5,0.4,3.3,1.1c0.9,0.8,1.5,1.7,1.9,2.9s0.6,2.4,0.6,3.7c0,2.3-0.4,4.2-1.1,5.7
						c-0.8,1.5-1.8,2.8-3,3.8c-1.3,1-2.7,1.8-4.2,2.5c-1.5,0.6-3.1,1.1-4.6,1.6c-0.9-2.2-1.4-4.8-1.4-7.7c0-4.1,0.8-7.5,2.3-9.9
						C49.9,12,52,10.8,54.6,10.8z"/>
					<path class="st0" d="M133.1,26.7c-0.2,1-0.6,2-1.1,3c-1.3,2.8-2.9,4.7-4.7,5.7s-3,0.6-3.9,0.2c-0.5-0.2-0.8-0.5-1-0.8
						c-0.3-0.5-0.4-1-0.3-1.6c0-0.8,0.2-1.5,0.6-2.2c0.7-1.4,1.4-2.4,2.3-3s1.9-1,3-1.2c1.2-0.2,2.5-0.2,3.8-0.1
						C132.2,26.6,132.6,26.6,133.1,26.7z"/>
				</g>
			</g>
		</g>
	</g>
	<g>
		<g>
			<path class="st0" d="M26.7,34c-0.8,1.4-1.9,2.6-3.3,3.4c-1.4,0.8-3.1,1.2-5.2,1.2c-2,0-3.8-0.5-5.3-1.5c-1.4-1-2.6-2.3-3.5-4
				c1.8-0.5,3.7-1.1,5.6-1.8c2-0.7,3.8-1.6,5.5-2.7s3.1-2.5,4.1-4.1c1.1-1.6,1.6-3.6,1.6-5.9c0-2.7-1-5-2.8-6.6
				c-1.9-1.6-4.3-2.5-7.4-2.5c-2.6,0-4.9,0.7-6.8,2.2c-1.7,1.6-3.2,3.5-4.2,6c-1,2.4-1.5,5.1-1.5,8.1c0,2.9,0.6,5.7,1.6,8.1
				c1.1,2.4,2.7,4.4,4.7,5.8c2,1.4,4.5,2.2,7.3,2.2c1.7,0,3.3-0.4,4.6-1.1c1.4-0.7,2.6-1.6,3.6-2.7c1-1.1,1.8-2.3,2.3-3.5l0.1-0.1
				L26.7,34L26.7,34z M16.1,10.8c1.4,0,2.5,0.4,3.3,1.1c0.9,0.8,1.5,1.7,1.9,2.9s0.6,2.4,0.6,3.7c0,2.3-0.4,4.2-1.1,5.7
				C20,25.7,19,27,17.8,28c-1.3,1-2.7,1.8-4.2,2.5c-1.5,0.6-3.1,1.1-4.6,1.6c-0.9-2.2-1.4-4.8-1.4-7.7c0-4.1,0.8-7.5,2.3-9.9
				C11.4,12,13.5,10.8,16.1,10.8z"/>
			<path class="st0" d="M11.1,28c-0.2-1.1-0.3-2.3-0.3-3.6c0-3.5,0.6-6.3,1.8-8.2c1.2-1.9,2.5-2.1,3.5-2.1c0.5,0,1,0.1,1.2,0.3
				c0.4,0.4,0.8,0.9,1,1.5c0.3,0.8,0.4,1.7,0.4,2.6c0,1.8-0.3,3.2-0.8,4.3c-0.5,1.1-1.3,2-2.2,2.7c-1,0.8-2.2,1.5-3.4,2
				C12,27.7,11.6,27.8,11.1,28z"/>
		</g>
	</g>
</g>
</svg>
